<svg xmlns="http://www.w3.org/2000/svg" width="1024" height="1536"><rect width="1024" height="1536" fill="#E9F7EF"/><rect x="36" y="24" width="952" height="1488" rx="44" fill="#F7FCF9"/><style>text{font-family:Arial}.h{font-size:32px;font-weight:700}.s{font-size:16px;fill:#5C7469}.l{font-size:13px;font-weight:700;fill:#5C7469}.m{font-size:28px;font-weight:700}</style><text x="92" y="78" class="h" fill="#18342B">BAD GYM</text><text x="92" y="108" class="s">Member Intelligence • SINGLE CARD CONCEPT</text><rect x="58" y="150" width="112" height="1258" rx="30" fill="#E8F5ED"/><text x="114" y="275" text-anchor="middle" class="s">Home</text><text x="114" y="500" text-anchor="middle" class="s">Attend</text><text x="114" y="725" text-anchor="middle" class="s">Plan</text><text x="114" y="950" text-anchor="middle" class="s">Pay</text><text x="114" y="1175" text-anchor="middle" class="s">More</text><rect x="878" y="150" width="92" height="1258" rx="30" fill="#F0EAF8"/><text x="924" y="244" text-anchor="middle" class="s">PT</text><text x="924" y="394" text-anchor="middle" class="s">LIFT</text><text x="924" y="544" text-anchor="middle" class="s">SUP</text><text x="924" y="694" text-anchor="middle" class="s">NUT</text><text x="924" y="844" text-anchor="middle" class="s">SV</text><text x="924" y="994" text-anchor="middle" class="s">LOG</text><rect x="888" y="1105" width="72" height="75" rx="20" fill="#8B5BD9"/><text x="924" y="1148" text-anchor="middle" font-size="13" font-weight="700" fill="#fff">AI</text><text x="924" y="1294" text-anchor="middle" class="s">OFF</text><rect x="186" y="150" width="670" height="138" rx="28" fill="#fff"/><circle cx="238" cy="219" r="45" fill="#E7DCF5"/><text x="238" y="228" text-anchor="middle" font-size="24" font-weight="700" fill="#8B5BD9">AS</text><text x="304" y="201" font-size="30" font-weight="700" fill="#18342B">Ashwani Singh</text><text x="304" y="232" class="s">BG204 • Gold Plan • ACTIVE</text><text x="835" y="185" text-anchor="end" font-size="24" font-weight="700" fill="#8B5BD9">INSIGHT / AI</text><text x="835" y="214" text-anchor="end" class="s">Pattern • risk • opportunity • forecast</text><rect x="186" y="310" width="670" height="122" rx="30" fill="#fff"/><text x="210" y="339" class="l">CURRENT DECISION</text><text x="210" y="382" class="m" fill="#8B5BD9">2 RISKS • 4 OPPORTUNITIES</text><text x="210" y="412" class="s">Every insight must expose evidence before action</text><rect x="624" y="350" width="200" height="50" rx="25" fill="#8B5BD9" opacity=".15"/><text x="724" y="382" text-anchor="middle" font-size="14" font-weight="700" fill="#8B5BD9">VIEW EVIDENCE</text><rect x="186" y="454" width="670" height="500" rx="30" fill="#fff"/><text x="210" y="488" class="l">INTELLIGENCE STACK</text><rect x="210" y="520" width="610" height="92" rx="24" fill="#F7EAF0"/><text x="235" y="550" class="l">RISK</text><text x="235" y="585" class="m" fill="#E9434C">Payment overdue</text><rect x="210" y="632" width="610" height="92" rx="24" fill="#F0FAFB"/><text x="235" y="662" class="l">PATTERN</text><text x="235" y="697" class="m" fill="#34B9C9">Attendance ↓ 11%</text><rect x="210" y="744" width="610" height="92" rx="24" fill="#EAF6EF"/><text x="235" y="774" class="l">OPPORTUNITY</text><text x="235" y="809" class="m" fill="#12BE5B">Strength ↑ 14%</text><rect x="210" y="856" width="610" height="68" rx="20" fill="#F0EAF8"/><text x="235" y="899" class="s">FORECAST • renewal window approaching • evidence linked</text><rect x="186" y="976" width="670" height="158" rx="28" fill="#F4EFF9"/><text x="210" y="1008" class="l">EXPLAIN</text><text x="210" y="1052" class="s">Visits • payments • workout records • dates • event history</text><text x="210" y="1082" class="s">No invented health score; no unsupported prediction</text><rect x="186" y="1156" width="670" height="112" rx="28" fill="#F0EAF8"/><text x="210" y="1187" class="l">NEXT ACTION</text><text x="210" y="1232" font-size="25" font-weight="700" fill="#8B5BD9">VIEW EVIDENCE →</text><rect x="186" y="1290" width="670" height="78" rx="28" fill="#8B5BD9"/><text x="521" y="1338" text-anchor="middle" font-size="22" font-weight="700" fill="#fff">VIEW EVIDENCE →</text><text x="186" y="1412" class="s">BAD GYM • canonical mobile card • one menu • one decision • concept</text></svg>