<svg xmlns="http://www.w3.org/2000/svg" width="1024" height="1536"><rect width="1024" height="1536" fill="#E9F7EF"/><rect x="36" y="24" width="952" height="1488" rx="44" fill="#F7FCF9"/><text x="92" y="90" font-family="Arial" font-size="34" font-weight="700" fill="#18342B">BAD GYM</text><text x="92" y="120" font-family="Arial" font-size="16" fill="#5C7469">Member Intelligence • SINGLE CARD</text><rect x="58" y="160" width="112" height="1240" rx="30" fill="#E8F5ED"/><text x="114" y="300" text-anchor="middle" font-family="Arial" font-size="15" fill="#5C7469">Home</text><text x="114" y="520" text-anchor="middle" font-family="Arial" font-size="15" fill="#5C7469">Attend</text><text x="114" y="740" text-anchor="middle" font-family="Arial" font-size="15" fill="#5C7469">Plan</text><text x="114" y="960" text-anchor="middle" font-family="Arial" font-size="15" fill="#5C7469">Pay</text><text x="114" y="1180" text-anchor="middle" font-family="Arial" font-size="15" fill="#5C7469">More</text><rect x="878" y="160" width="92" height="1240" rx="30" fill="#EAF3F7"/><text x="924" y="270" text-anchor="middle" font-family="Arial" font-size="14">PT</text><rect x="888" y="350" width="72" height="75" rx="20" fill="#438BE8"/><text x="924" y="393" text-anchor="middle" font-family="Arial" font-size="13" font-weight="700" fill="#fff">LIFT</text><text x="924" y="570" text-anchor="middle" font-family="Arial" font-size="14">SUP</text><text x="924" y="720" text-anchor="middle" font-family="Arial" font-size="14">NUT</text><text x="924" y="870" text-anchor="middle" font-family="Arial" font-size="14">SV</text><text x="924" y="1020" text-anchor="middle" font-family="Arial" font-size="14">LOG</text><text x="924" y="1170" text-anchor="middle" font-family="Arial" font-size="14">AI</text><text x="924" y="1320" text-anchor="middle" font-family="Arial" font-size="14">OFF</text><rect x="186" y="160" width="670" height="140" rx="28" fill="#fff"/><text x="304" y="220" font-family="Arial" font-size="30" font-weight="700" fill="#18342B">Ashwani Singh</text><text x="304" y="252" font-family="Arial" font-size="16" fill="#5C7469">BG204 • Gold Plan • ACTIVE</text><text x="835" y="205" text-anchor="end" font-family="Arial" font-size="24" font-weight="700" fill="#438BE8">BODY PROGRESS</text><text x="835" y="234" text-anchor="end" font-family="Arial" font-size="14" fill="#5C7469">Measurements • trends • changes • goals</text><rect x="186" y="330" width="670" height="122" rx="30" fill="#fff"/><text x="210" y="362" font-family="Arial" font-size="13" font-weight="700" fill="#5C7469">CURRENT DECISION</text><text x="210" y="405" font-family="Arial" font-size="30" font-weight="700" fill="#438BE8">72.4 KG • 33.1 KG MUSCLE</text><text x="210" y="434" font-family="Arial" font-size="16" fill="#5C7469">15% body fat • 6-month trend</text><rect x="186" y="474" width="210" height="108" rx="24" fill="#EEF5FB"/><rect x="411" y="474" width="210" height="108" rx="24" fill="#EEF5FB"/><rect x="636" y="474" width="220" height="108" rx="24" fill="#EEF5FB"/><text x="210" y="505" font-family="Arial" font-size="13" font-weight="700" fill="#5C7469">WEIGHT</text><text x="210" y="550" font-family="Arial" font-size="28" font-weight="700" fill="#438BE8">72.4</text><text x="435" y="505" font-family="Arial" font-size="13" font-weight="700" fill="#5C7469">MUSCLE</text><text x="435" y="550" font-family="Arial" font-size="28" font-weight="700" fill="#438BE8">33.1</text><text x="660" y="505" font-family="Arial" font-size="13" font-weight="700" fill="#5C7469">FAT %</text><text x="660" y="550" font-family="Arial" font-size="28" font-weight="700" fill="#438BE8">15%</text><rect x="186" y="604" width="670" height="360" rx="30" fill="#fff"/><text x="210" y="640" font-family="Arial" font-size="13" font-weight="700" fill="#5C7469">6-MONTH BODY TREND</text><polyline points="220,850 300,790 380,815 460,730 540,760 620,690 700,720 800,650" fill="none" stroke="#438BE8" stroke-width="8"/><text x="210" y="910" font-family="Arial" font-size="15" fill="#5C7469">Weight • muscle • fat • circumference when actually recorded</text><rect x="186" y="990" width="670" height="150" rx="28" fill="#EEF5FB"/><text x="210" y="1025" font-family="Arial" font-size="13" font-weight="700" fill="#5C7469">EVIDENCE</text><text x="210" y="1070" font-family="Arial" font-size="16" fill="#18342B">72.4kg • 33.1kg muscle • 15% fat • dated measurements</text><text x="210" y="1100" font-family="Arial" font-size="14" fill="#5C7469">No invented health score; only recorded measurements.</text><rect x="186" y="1160" width="670" height="130" rx="28" fill="#E5F0FA"/><text x="210" y="1200" font-family="Arial" font-size="13" font-weight="700" fill="#5C7469">NEXT ACTION</text><text x="210" y="1245" font-family="Arial" font-size="25" font-weight="700" fill="#438BE8">VIEW BODY HISTORY →</text><rect x="186" y="1320" width="670" height="70" rx="28" fill="#438BE8"/><text x="521" y="1365" text-anchor="middle" font-family="Arial" font-size="21" font-weight="700" fill="#fff">VIEW BODY HISTORY →</text></svg>